<svg width="197" height="197" xmlns="http://www.w3.org/2000/svg" xmlns:xlink="http://www.w3.org/1999/xlink" xml:space="preserve" overflow="hidden"><g><path d="M128.871 125.793C129.897 123.741 129.281 121.278 127.229 120.252 125.177 119.226 122.715 119.842 121.689 121.894L113.48 136.464 119.021 114.506C119.636 112.249 118.2 109.992 115.943 109.581 113.685 108.966 111.428 110.402 111.018 112.659L106.298 131.539 106.298 111.018C106.298 108.76 104.451 106.914 102.194 106.914 99.9365 106.914 98.0896 108.76 98.0896 111.018L98.0896 132.975 93.3698 112.659C92.9594 110.402 90.7021 109.171 88.4448 109.581 86.1875 109.992 84.9563 112.249 85.3667 114.506L91.1125 138.926C90.9073 141.799 90.2917 144.672 89.676 147.134 89.676 147.134 89.676 146.929 89.4708 146.929 85.9823 141.594 80.4417 136.874 75.1062 135.438 73.0542 134.822 71.0021 136.053 70.3865 138.105 69.7708 140.157 71.0021 142.209 73.0542 142.825 75.7219 143.441 78.1844 147.34 80.8521 151.444 84.1354 156.574 88.2396 162.525 94.3958 166.014L94.3958 187.971 112.454 187.971 112.454 164.782C119.226 161.294 120.047 146.724 120.252 141.183L128.871 125.793Z" fill="#1C7FA0"/><path d="M56.4323 127.434 74.2854 127.64C74.2854 127.64 74.2854 127.64 74.2854 127.64 76.5427 127.64 78.3896 125.793 78.3896 123.535 78.3896 121.278 76.5427 119.431 74.2854 119.431L57.6635 119.226 79.4156 113.685C81.6729 113.07 82.9042 110.812 82.2885 108.76 81.6729 106.503 79.4156 105.272 77.3635 105.887L58.4844 110.812 76.5427 100.962C78.5948 99.9365 79.2104 97.474 78.1844 95.4219 77.1583 93.3698 74.6958 92.7542 72.6438 93.7802L53.3542 104.041 68.95 90.2917C70.5917 88.8552 70.7969 86.1875 69.3604 84.5458 67.924 82.9042 65.2562 82.699 63.6146 84.1354L44.7354 100.552C42.0677 101.783 39.4 102.604 36.7323 103.015 36.7323 103.015 36.7323 102.809 36.9375 102.809 40.0156 97.0635 41.4521 90.0865 40.2208 84.751 39.8104 82.699 37.5531 81.4677 35.501 81.8781 33.449 82.2885 32.2177 84.5458 32.6281 86.5979 33.2438 89.2656 31.1917 93.1646 28.9344 97.474 26.0615 102.809 22.7781 109.171 22.5729 116.353L3.28333 126.819 11.9021 142.62 32.2177 131.744C38.374 136.053 51.5073 129.897 56.4323 127.434Z" fill="#1C7FA0"/><path d="M58.6896 60.5365 62.999 77.774C63.4094 79.6208 65.051 80.8521 66.8979 80.8521 67.3083 80.8521 67.5135 80.8521 67.924 80.6469 70.1813 80.0312 71.4125 77.9792 71.0021 75.7219L67.1031 59.5104 77.9792 79.0052C78.8 80.4417 80.0312 81.0573 81.6729 81.0573 82.2885 81.0573 83.1094 80.8521 83.725 80.4417 85.7771 79.4156 86.3927 76.7479 85.3667 74.901L75.9271 57.8687 89.8812 72.849C90.7021 73.6698 91.7281 74.0802 92.9594 74.0802 93.9854 74.0802 95.0115 73.6698 95.8323 73.0542 97.474 71.4125 97.474 68.95 96.0375 67.3083L81.0573 51.3021 98.5 62.999C99.1156 63.4094 99.9365 63.6146 100.757 63.6146 101.989 63.6146 103.425 62.999 104.246 61.7677 105.477 59.9208 105.067 57.2531 103.22 56.0219L82.2885 42.0677C80.4417 39.8104 79.0052 37.3479 77.774 35.0906 77.774 35.0906 77.9792 35.0906 77.9792 35.0906 84.1354 36.5271 91.3177 36.3219 96.2427 33.6542 98.0896 32.6281 98.7052 30.3708 97.6792 28.524 96.6531 26.6771 94.3958 26.0615 92.549 27.0875 90.2917 28.3187 85.7771 27.2927 81.0573 26.2667 75.1062 24.8302 68.1292 23.1885 61.1521 25.0354L46.1719 9.02917 33.0385 21.3417 48.8396 38.1688C45.5563 45.351 54.7906 56.6375 58.6896 60.5365Z" fill="#1C7FA0"/><path d="M193.717 141.183 178.121 124.151C180.789 116.969 171.554 105.682 167.86 101.578L163.756 84.3406C163.141 82.0833 161.089 80.8521 158.831 81.2625 156.574 81.8781 155.343 83.9302 155.753 86.1875L159.652 102.399 148.776 82.699C147.75 80.6469 145.288 80.0312 143.235 81.0573 141.183 82.0833 140.568 84.5458 141.594 86.5979L151.033 103.835 137.079 88.8552C135.438 87.2135 132.975 87.0083 131.333 88.65 129.692 90.2917 129.486 92.7542 131.128 94.3958L146.108 110.607 128.871 98.9104C127.024 97.6792 124.356 98.0896 123.125 99.9365 121.894 101.783 122.304 104.451 124.151 105.682L144.877 119.842C146.724 122.099 148.16 124.561 149.392 126.819 149.392 126.819 149.186 126.819 149.186 126.819 143.03 125.382 135.848 125.587 130.923 128.255 129.076 129.281 128.255 131.539 129.281 133.385 130.307 135.232 132.565 136.053 134.411 135.027 136.669 133.796 141.183 134.822 145.903 136.053 151.854 137.49 158.831 139.131 165.808 137.49L180.583 153.496 193.717 141.183Z" fill="#1C7FA0"/><path d="M109.376 53.3542C109.786 53.3542 110.197 53.3542 110.812 53.149L126.408 47.6083 107.94 60.3312C106.093 61.5625 105.682 64.2302 106.914 66.0771 107.734 67.3083 108.966 67.924 110.197 67.924 111.018 67.924 111.839 67.7188 112.454 67.1031L128.46 56.0219 114.917 71.4125C113.48 73.0542 113.685 75.7219 115.327 77.1583 116.148 77.774 116.969 78.1844 117.995 78.1844 119.226 78.1844 120.252 77.774 121.073 76.7479L135.643 60.126 125.793 78.5948C124.767 80.6469 125.382 83.1094 127.434 84.1354 128.05 84.5458 128.666 84.5458 129.281 84.5458 130.718 84.5458 132.154 83.725 132.975 82.2885L144.877 60.126C146.929 58.074 149.186 56.4323 151.444 54.9958 151.444 54.9958 151.444 55.201 151.444 55.201 150.623 61.5625 151.649 68.7448 154.727 73.2594 155.958 75.1062 158.216 75.5167 160.062 74.2854 161.909 73.0542 162.32 70.7969 161.089 68.95 159.652 66.6927 160.268 62.1781 160.883 57.2531 161.704 51.3021 162.525 44.1198 160.268 37.3479L174.632 20.9312 161.089 9.02917 145.903 26.4719C138.516 24.625 128.255 35.0906 124.561 38.9896L107.734 44.9406C105.682 45.7615 104.451 48.0187 105.272 50.276 106.093 52.3281 107.734 53.3542 109.376 53.3542Z" fill="#1C7FA0"/></g></svg>