<?xml version="1.0" encoding="UTF-8"?>
<svg xmlns="http://www.w3.org/2000/svg" width="244" height="77" viewBox="0 0 244 77" fill="none">
  <path d="M222.659 47.1321C222.324 50.3932 221.073 53.121 218.918 55.2951C216.763 57.4692 213.824 58.5562 210.124 58.5562C207.765 58.5562 205.661 58.0434 203.8 57.0282C201.95 56.013 200.364 54.5978 199.042 52.7929C197.731 50.988 196.734 48.8344 196.063 46.3117C195.392 43.7992 195.057 41.0406 195.057 38.0461C195.057 35.0517 195.362 32.3033 195.972 29.7806C196.582 27.2681 197.507 25.1043 198.757 23.2994C200.008 21.4945 201.553 20.0896 203.414 19.0641C205.264 18.0488 207.44 17.5361 209.941 17.5361C211.628 17.5361 213.194 17.8232 214.648 18.4078C216.102 18.9821 217.342 19.7819 218.389 20.8074C219.436 21.8227 220.28 22.9815 220.921 24.2736C221.561 25.5658 221.948 26.9297 222.08 28.3551H243.216C242.749 23.6583 241.447 19.3615 239.322 15.4543C237.198 11.5472 234.249 8.29632 230.477 5.71205C227.844 3.8764 224.815 2.46121 221.378 1.47672C217.911 0.492241 214.201 0 210.225 0C204.766 0 199.794 0.953717 195.311 2.86115C190.827 4.76859 186.984 7.41438 183.782 10.8191C181.484 13.2597 179.553 16.0389 177.977 19.1359C177.692 18.1822 177.367 17.2695 176.98 16.3773C175.567 13.1469 173.575 10.3781 171.013 8.06045C169.071 6.27608 166.783 4.83012 164.16 3.73283C147.782 5.28134 131.983 7.44515 117.099 10.1525V42.4661C117.007 42.2712 116.916 42.0661 116.814 41.8815C115.431 39.2665 113.591 37.0719 111.304 35.2978C109.006 33.5339 106.414 32.1187 103.516 31.0625C100.619 30.0062 97.6498 29.1038 94.6202 28.3551C91.926 27.6783 89.5165 27.1143 87.3917 26.6733C85.2669 26.2324 83.4775 25.7504 82.0339 25.2479C80.58 24.7351 79.4922 24.1403 78.75 23.4635C78.0079 22.7867 77.6419 21.9047 77.6419 20.8074C77.6419 20.1819 77.774 19.6179 78.0282 19.0846C70.5862 21.1971 63.5407 23.4532 56.973 25.8632C57.2882 28.5192 58.0609 30.8061 59.291 32.734C60.938 35.3183 63.0629 37.4411 65.6655 39.1127C68.258 40.7842 71.1454 42.1174 74.3174 43.1429C77.4893 44.1581 80.5902 45.0503 83.6199 45.7989C85.8464 46.3425 87.8187 46.8552 89.5368 47.3269C91.255 47.7987 92.6885 48.3114 93.8374 48.8549C94.9862 49.3985 95.8605 50.0445 96.4705 50.7931C97.0805 51.5418 97.3855 52.4647 97.3855 53.5517C97.3855 54.6388 97.1009 55.572 96.5214 56.3616C95.952 57.141 95.22 57.7768 94.3457 58.2485C93.4714 58.7203 92.475 59.0689 91.3669 59.2638C90.2587 59.4689 89.1912 59.5714 88.1847 59.5714C84.6772 59.5714 81.861 58.8741 79.7362 57.4794C77.6114 56.0847 76.3812 53.9312 76.0457 50.9982H54.4009C54.4314 52.7621 54.6144 54.4234 54.9295 55.9924H21.1355V44.5683H49.3684C50.0292 44.5683 50.568 44.0248 50.568 43.3582V28.55C50.568 28.55 48.2399 29.2678 45.8609 30.2523C41.6824 31.9854 39.4762 33.0827 35.8162 34.9389C30.133 37.8205 25.0904 40.815 20.7085 43.912C12.26 49.8702 6.29219 56.1565 2.99819 62.5864C0.273524 67.9088 4.20802 74.2566 10.1454 74.2566H57.339V62.5146C59.0267 65.4168 61.2837 67.8575 64.1304 69.8265C67.1295 71.898 70.637 73.4465 74.6529 74.472C78.6687 75.4872 83.0302 76 87.7475 76C91.9972 76 96.0029 75.477 99.7849 74.4207C103.557 73.3645 106.861 71.8159 109.697 69.7752C112.534 67.7344 114.771 65.2015 116.428 62.1762C116.682 61.7147 116.906 61.243 117.109 60.7713V74.2669H138.245V52.0237H154.227C157.867 52.0237 161.202 51.3982 164.242 50.1368C167.271 48.8755 169.904 47.1424 172.131 44.9375C172.761 44.312 173.341 43.6556 173.88 42.9788C174.256 46.5681 175.039 49.983 176.248 53.2031C177.997 57.8589 180.478 61.8788 183.68 65.2425C186.883 68.6061 190.726 71.2417 195.209 73.1491C199.693 75.0565 204.695 76.0103 210.225 76.0103C215.756 76.0103 220.087 75.3334 224.032 73.9695C227.976 72.6056 231.494 70.4008 234.605 67.3345C237.167 64.822 239.292 61.8481 240.98 58.4126C242.667 54.9772 243.674 51.2239 244.009 47.1424H222.669L222.659 47.1321ZM155.783 33.1545C154.268 34.7235 152.225 35.5029 149.663 35.5029H138.235V18.9718H149.459C152.225 18.9718 154.349 19.6999 155.834 21.1664C157.318 22.6328 158.06 24.5813 158.06 27.0322C158.06 29.4832 157.298 31.5855 155.783 33.1545ZM94.7218 22.2432H115.655C115.584 18.295 114.74 14.9211 113.124 12.0907C112.91 11.7215 112.697 11.3626 112.463 11.0139C104.39 12.5624 96.6129 14.2647 89.1709 16.1209C90.3197 16.4183 91.2855 16.8695 92.0378 17.4951C93.4815 18.6847 94.3762 20.2639 94.7218 22.2432Z" fill="#002B49"></path>
  <path d="M3.55833 40.5689C6.23217 35.1953 9.62783 30.0575 13.7352 25.2581C22.692 14.7877 34.3023 6.635 47.7122 1.3229H16.9275C14.0097 4.6968 11.2952 9.0757 8.8755 14.4083C4.46317 24.1096 1.44367 36.0772 0 49.1011C0 49.1011 0.61 47.3885 0.935333 46.5373C1.708 44.5171 2.5925 42.5276 3.55833 40.5689ZM21.1365 21.7612C19.3167 23.5045 17.5883 25.3094 15.9718 27.2066C7.20817 37.4514 1.77917 49.378 0 61.8788L0.132167 61.6019C6.0085 49.5933 20.3028 38.3641 42.3543 28.5602H21.1365V21.7612ZM13.1252 1.3229H1.19967C0.538833 1.3229 0 1.86641 0 2.53299V31.6778C1.60633 24.9402 3.68033 18.7052 6.1915 13.1675C8.28583 8.55269 10.614 4.584 13.1252 1.3229ZM56.3335 18.6642V1.48698C44.4588 5.06598 33.5297 10.9934 24.5423 18.6642H56.3335ZM106.659 5.14802C103.964 3.34314 100.874 2.04075 97.4068 1.22035C93.9298 0.399946 90.341 0 86.6403 0C82.594 0 78.751 0.420456 75.1113 1.27162C71.4717 2.12279 68.2997 3.4662 65.6055 5.30185C62.9113 7.1375 60.7662 9.51667 59.1802 12.4393C57.6348 15.2902 56.852 18.7359 56.8113 22.7559C72.3968 17.1054 90.5443 12.2445 110.43 8.3681C109.322 7.15801 108.062 6.07098 106.659 5.13777V5.14802ZM150.375 1.3229H117.1V7.11699C129.391 4.9019 142.303 3.04574 155.631 1.59978C153.974 1.41519 152.225 1.3229 150.365 1.3229H150.375Z" fill="url(#paint0_linear_8426_32539)"></path>
  <defs>
    <linearGradient id="paint0_linear_8426_32539" x1="-2.39933" y1="58.4126" x2="130.855" y2="-34.0911" gradientUnits="userSpaceOnUse">
      <stop offset="0.1" stop-color="#00B8E7"></stop>
      <stop offset="0.21" stop-color="#00BBB4"></stop>
      <stop offset="0.46" stop-color="#00C335"></stop>
      <stop offset="0.57" stop-color="#00C700"></stop>
      <stop offset="0.67" stop-color="#4AC500"></stop>
      <stop offset="0.79" stop-color="#97C400"></stop>
      <stop offset="0.88" stop-color="#CFC300"></stop>
      <stop offset="0.95" stop-color="#F1C300"></stop>
      <stop offset="0.99" stop-color="#FFC300"></stop>
    </linearGradient>
  </defs>
</svg>
